<svg xmlns="http://www.w3.org/2000/svg" xmlns:xlink="http://www.w3.org/1999/xlink" width="472.986" height="158.175" viewBox="0 0 472.986 284.175"><defs><style>.a,.ah,.ai,.ap{fill:none;}.a{stroke:#f4f8fc;stroke-width:0.955px;}.a,.ap{stroke-miterlimit:10;}.b{fill:#edf4fc;}.c{opacity:0.25;mix-blend-mode:multiply;isolation:isolate;}.d{fill:#2490bf;}.e{fill:#0090c9;}.f{fill:#fff;}.g{fill:gray;}.h{fill:#b0b0b0;}.i{fill:#969696;}.j{fill:#e3e3e3;}.k{fill:#1a1a1a;}.l{fill:#c9c9c9;}.m{fill:#373b4a;}.n{fill:#ffdf87;}.o{fill:#7fb8fa;}.p{fill:#f45b5b;}.q{fill:#ffbd81;}.r{fill:#d8e6ea;}.s{fill:#00e3cc;}.t{fill:#d0e1e3;}.u{fill:#f78b4f;}.v{fill:#f79e6c;}.w{fill:#9b5b30;}.x{fill:#e6f1f2;}.y{fill:#00c5ab;}.z{fill:#fff7e0;}.aa{fill:#6d5952;}.ab{fill:#00dec1;}.ac{fill:#0079a9;}.ad{fill:#ffab5e;}.ae{fill:#89c33f;}.af{fill:#292b33;}.ag{fill:#618dbf;}.ah{stroke:#fff;stroke-linecap:round;stroke-linejoin:round;stroke-width:0.945px;}.aj{fill:#474a59;}.ak{fill:#ffbd82;}.al{fill:#c5d7d9;}.am{fill:#525666;}.an{fill:#05c9b1;}.ao{fill:#e89c58;}.ap{stroke:#c47149;stroke-width:2.1px;}.aq{fill:#623421;}.ar{fill:#7f3a17;}.as{fill:#663731;}.at{fill:#ff737d;}.au{fill:#c47149;}.av{fill:#e3f3f1;}.aw{fill:#b8a9a9;}.ax{fill:#1d2842;}.ay{fill:#00f5dc;}.az{filter:url(#a);}</style><filter id="a" x="150.46" y="41.7" width="83.718" height="75.585" filterUnits="userSpaceOnUse"><feOffset dy="5.347" input="SourceAlpha"/><feGaussianBlur result="b"/><feFlood flood-color="#2490bf" flood-opacity="0.251"/><feComposite operator="in" in2="b"/><feComposite in="SourceGraphic"/></filter></defs><g transform="translate(-30.704 -84.396)"><path class="a" d="M487.323,431.3" transform="translate(-149.161 -113.323)"/><path class="b" d="M76.055,364.161C60,362.154,44.514,346.121,37.478,332.69c-8.983-17.146-8.347-37.58-2.092-55.665,7.621-22.035,29.339-32.563,49.421-41.667,16.6-7.527,33.773-14.055,49.116-23.969A132.382,132.382,0,0,0,177.7,164.4c9.617-17.407,15.446-37.136,27.811-52.646A73.949,73.949,0,0,1,251.563,85.22c19.261-2.967,37.493,2.08,51.823,15.022a89.1,89.1,0,0,1,8.669,9.072c12.678,15.2,22.442,33.257,37.965,45.425,15.434,12.1,34.8,16.516,52.79,23.314,8.437,3.186,17.359,5.521,25.424,9.766,21.084,11.1,39.7,27.635,51.841,48.254,12.2,20.727,16.855,45.532,13.995,69.453a90.45,90.45,0,0,1-12.889,37.615A48.516,48.516,0,0,1,453.317,364.2H83.517a65.445,65.445,0,0,1-7.094,0Z" transform="translate(0 0)"/><g transform="translate(292.784 103.731)"><g class="c" transform="translate(0 4.373)"><path class="d" d="M474.253,119.606h-51.41a2.913,2.913,0,0,0-2.913,2.913v13.987a2.913,2.913,0,0,0,2.913,2.913h38.225l12.146,14.645-3.378-14.645h4.417a2.913,2.913,0,0,0,2.913-2.913V122.519A2.913,2.913,0,0,0,474.253,119.606Z" transform="translate(-419.93 -119.606)"/><path class="d" d="M443.167,132.568a2.7,2.7,0,1,1-2.7-2.7A2.7,2.7,0,0,1,443.167,132.568Z" transform="translate(-425.759 -122.959)"/><path class="d" d="M461.631,132.568a2.7,2.7,0,1,1-2.7-2.7A2.7,2.7,0,0,1,461.631,132.568Z" transform="translate(-431.79 -122.959)"/><path class="d" d="M480.1,132.568a2.7,2.7,0,1,1-2.7-2.7A2.7,2.7,0,0,1,480.1,132.568Z" transform="translate(-437.822 -122.959)"/></g><path class="e" d="M474.253,113.111h-51.41a2.913,2.913,0,0,0-2.913,2.913v13.987a2.913,2.913,0,0,0,2.913,2.913h38.225l12.146,14.645-3.378-14.645h4.417a2.913,2.913,0,0,0,2.913-2.913V116.024A2.913,2.913,0,0,0,474.253,113.111Z" transform="translate(-419.93 -113.111)"/><g transform="translate(12.015 6.912)"><path class="f" d="M443.167,126.073a2.7,2.7,0,1,1-2.7-2.7A2.7,2.7,0,0,1,443.167,126.073Z" transform="translate(-437.774 -123.376)"/><path class="f" d="M461.631,126.073a2.7,2.7,0,1,1-2.7-2.7A2.7,2.7,0,0,1,461.631,126.073Z" transform="translate(-443.805 -123.376)"/><path class="f" d="M480.1,126.073a2.7,2.7,0,1,1-2.7-2.7A2.7,2.7,0,0,1,480.1,126.073Z" transform="translate(-449.837 -123.376)"/></g></g><g transform="translate(405.664 103.731)"><g class="c" transform="translate(0 4.373)"><path class="d" d="M641.9,119.606h-51.41a2.913,2.913,0,0,0-2.913,2.913v13.987a2.913,2.913,0,0,0,2.913,2.913h38.225l-2.783,14.645,11.551-14.645H641.9a2.913,2.913,0,0,0,2.913-2.913V122.519A2.913,2.913,0,0,0,641.9,119.606Z" transform="translate(-587.573 -119.606)"/><path class="d" d="M613,133.648a2.7,2.7,0,1,1-2.7-2.7A2.7,2.7,0,0,1,613,133.648Z" transform="translate(-594.117 -123.312)"/><path class="d" d="M631.463,133.648a2.7,2.7,0,1,1-2.7-2.7A2.7,2.7,0,0,1,631.463,133.648Z" transform="translate(-600.148 -123.312)"/><path class="d" d="M649.928,133.648a2.7,2.7,0,1,1-2.7-2.7A2.7,2.7,0,0,1,649.928,133.648Z" transform="translate(-606.18 -123.312)"/></g><path class="e" d="M641.9,113.111h-51.41a2.913,2.913,0,0,0-2.913,2.913v13.987a2.913,2.913,0,0,0,2.913,2.913h38.225l-2.783,14.645,11.551-14.645H641.9a2.913,2.913,0,0,0,2.913-2.913V116.024A2.913,2.913,0,0,0,641.9,113.111Z" transform="translate(-587.573 -113.111)"/><g transform="translate(13.488 7.639)"><path class="f" d="M613,127.153a2.7,2.7,0,1,1-2.7-2.7A2.7,2.7,0,0,1,613,127.153Z" transform="translate(-607.605 -124.456)"/><path class="f" d="M631.463,127.153a2.7,2.7,0,1,1-2.7-2.7A2.7,2.7,0,0,1,631.463,127.153Z" transform="translate(-613.637 -124.456)"/><path class="f" d="M649.928,127.153a2.7,2.7,0,1,1-2.7-2.7A2.7,2.7,0,0,1,649.928,127.153Z" transform="translate(-619.669 -124.456)"/></g></g><g transform="translate(199.126 213.767)"><g class="c" transform="translate(0 4.373)"><path class="d" d="M335.157,317.483h-51.41a2.913,2.913,0,0,1-2.913-2.913V300.583a2.913,2.913,0,0,1,2.913-2.913h38.225l17.05-14.645L330.74,297.67h4.417a2.913,2.913,0,0,1,2.913,2.913V314.57A2.913,2.913,0,0,1,335.157,317.483Z" transform="translate(-280.834 -283.025)"/><path class="d" d="M306.259,318.7a2.7,2.7,0,1,0-2.7,2.7A2.7,2.7,0,0,0,306.259,318.7Z" transform="translate(-287.378 -293.798)"/><path class="d" d="M324.724,318.7a2.7,2.7,0,1,0-2.7,2.7A2.7,2.7,0,0,0,324.724,318.7Z" transform="translate(-293.41 -293.798)"/><path class="d" d="M343.188,318.7a2.7,2.7,0,1,0-2.7,2.7A2.7,2.7,0,0,0,343.188,318.7Z" transform="translate(-299.441 -293.798)"/></g><g transform="translate(0 0)"><path class="e" d="M335.157,310.987h-51.41a2.912,2.912,0,0,1-2.913-2.912V294.088a2.913,2.913,0,0,1,2.913-2.913h38.225l17.05-14.645-8.281,14.645h4.417a2.913,2.913,0,0,1,2.913,2.913v13.987A2.912,2.912,0,0,1,335.157,310.987Z" transform="translate(-280.834 -276.53)"/><g transform="translate(13.488 22.205)"><path class="f" d="M306.259,312.2a2.7,2.7,0,1,0-2.7,2.7A2.7,2.7,0,0,0,306.259,312.2Z" transform="translate(-300.866 -309.508)"/><path class="f" d="M324.724,312.2a2.7,2.7,0,1,0-2.7,2.7A2.7,2.7,0,0,0,324.724,312.2Z" transform="translate(-306.898 -309.508)"/><path class="f" d="M343.188,312.2a2.7,2.7,0,1,0-2.7,2.7A2.7,2.7,0,0,0,343.188,312.2Z" transform="translate(-312.929 -309.508)"/></g></g></g><g transform="translate(195.878 147.535)"><g transform="translate(69.696 0)"><path class="g" d="M530.978,377.766c-.335,8.089-.736,18.148-1.223,26.23h4.3c.483-8.079.88-18.136,1.211-26.222Z" transform="translate(-428.596 -243.369)"/><path class="h" d="M504.716,377.721l-33.98-.059c-.367,8.113-.8,18.2-1.331,26.3h40.635c.487-8.081.889-18.14,1.224-26.23Z" transform="translate(-408.882 -243.335)"/><path class="h" d="M633,305.276c3.712,3.677,4.138,4.264,7.836,7.951,4.306-39.194,7.712-78.477,12.619-117.6a19.177,19.177,0,0,0-6.132-17.355h0C641.355,220.6,637.565,262.78,633,305.276Z" transform="translate(-462.323 -178.2)"/><path class="i" d="M550.2,366.868c3.711,3.677,7.836,7.951,7.836,7.951L385.989,374.5s-3.3-3.846-6.469-7.634C436.413,367.093,493.306,366.676,550.2,366.868Z" transform="translate(-379.52 -239.792)"/><path class="j" d="M379.52,357.86c56.893.226,113.786-.192,170.678,0,.8-7.3,1.176-11.286,1.92-18.507-56.808-.4-113.617.439-170.425,0C380.993,345.606,380.272,351.613,379.52,357.86Z" transform="translate(-379.52 -230.784)"/><path class="k" d="M396.212,178.235c-5.877,35.641-9.472,72.614-13.465,108.5,56.808.439,113.617-.4,170.425,0,3.725-36.47,7.288-72.192,12.4-108.5C509.12,178.281,452.666,178.061,396.212,178.235Z" transform="translate(-380.574 -178.167)"/><g transform="translate(9.628 6.366)"><path class="l" d="M566.7,187.7c-52.007-.139-104.014-.026-156.02-.074-.449,2.792-.669,4.2-1.1,7.021,52.023.271,104.048.383,156.071.727C566.062,192.311,566.271,190.777,566.7,187.7Z" transform="translate(-398.969 -187.622)"/><path class="f" d="M412.961,193.728c.214-1.393.322-2.087.541-3.472,44.457.089,88.915.066,133.371.178-.208,1.5-.31,2.252-.513,3.749C501.895,193.982,457.427,193.911,412.961,193.728Z" transform="translate(-400.072 -188.482)"/><path class="m" d="M404.434,198.049c-4.294,29.25-7.384,59.281-10.615,88.663,52.308.468,104.617-.436,156.925,0,3-29.558,5.94-58.471,9.761-87.936C508.482,198.432,456.457,198.32,404.434,198.049Z" transform="translate(-393.819 -191.028)"/></g><g transform="translate(24.071 17.612)"><path class="n" d="M482.986,204.7q-30.181-.179-60.362-.377c-2.157,11-4.087,22.054-5.932,33.115q31.083.454,62.166.871C480.124,227.094,481.46,215.885,482.986,204.7Z" transform="translate(-415.734 -204.324)"/><path class="o" d="M416.227,253.5c-.385,2.318-.577,3.482-.958,5.816q31.237.461,62.475.882c.257-2.335.386-3.5.648-5.827Q447.31,253.952,416.227,253.5Z" transform="translate(-415.269 -220.389)"/></g><g transform="translate(138.298 17.821)"><path class="f" d="M609.031,215.03c-1.034,5.9-7.483,10.014-13.5,10.1-5.617.079-11.383-4.746-10.542-10.359.9-6.012,7.472-10.195,13.555-10.135C603.722,204.686,610.037,209.29,609.031,215.03Z" transform="translate(-584.912 -204.634)"/><path class="p" d="M605.754,215.273l-4.012-.042c.2-1.374.3-2.061.5-3.437a.685.685,0,0,0-.747-.747l-2.4-.022a.962.962,0,0,0-.97.731c-.213,1.374-.318,2.06-.527,3.432l-4.008-.041a.971.971,0,0,0-.981.728c-.134.828-.2,1.242-.333,2.069a.681.681,0,0,0,.75.745l4.036.045c-.2,1.371-.307,2.056-.509,3.425a.7.7,0,0,0,.768.747l2.461.03a.952.952,0,0,0,.978-.726c.191-1.372.287-2.057.481-3.429l4.041.046a.941.941,0,0,0,.967-.729c.11-.831.165-1.246.276-2.078A.7.7,0,0,0,605.754,215.273Z" transform="translate(-587.313 -206.722)"/></g><path class="g" d="M504.762,351.829c-.439,2.7-3.319,4.63-6,4.7-2.507.061-5.076-2.15-4.719-4.746.382-2.78,3.28-4.708,5.991-4.686C502.339,347.112,505.189,349.2,504.762,351.829Z" transform="translate(-416.919 -233.349)"/><g transform="translate(100.435 47.21)"><path class="n" d="M595.859,249.125q-30.276-.444-60.552-.844c-1.84,11.379-3.57,22.774-5.3,34.17q31.141.361,62.28.739C593.436,271.83,594.6,260.472,595.859,249.125Z" transform="translate(-529.114 -248.281)"/><path class="o" d="M529.574,299.028c-.358,2.365-.536,3.549-.894,5.922q31.291.332,62.583.679c.236-2.348.355-3.52.592-5.863Q560.714,299.384,529.574,299.028Z" transform="translate(-528.68 -264.858)"/><g transform="translate(17.643 2.194)"><g transform="translate(0 16.859)"><path class="q" d="M559.259,291.751c.36-1.143.755-2.262,1.2-3.328a18.59,18.59,0,0,1,1.061-2.132,17.713,17.713,0,0,1-3.709-2.93,18.444,18.444,0,0,0-1.316,2.946c-.218.607-.4,1.236-.589,1.856-.146.636-.308,1.268-.439,1.906-.261,1.274-.44,2.582-.581,3.895-.005.047,0,.094,0,.141l3.7.043c.068-.262.1-.393.171-.656Z" transform="translate(-554.882 -278.794)"/><path class="r" d="M558.709,280.37a11,11,0,0,1,1.563-1.978,7.988,7.988,0,0,1,1.652-1.294,4.65,4.65,0,0,1,.933-.422,3,3,0,0,1,2.691.7,2.038,2.038,0,0,1,.688,1.516,3.023,3.023,0,0,1-.416,1.376c-.492.949-1.193,1.722-1.769,2.609a8.335,8.335,0,0,0-.57.808c-.212.339-.42.689-.624,1.045a21.9,21.9,0,0,1-4.585-3.623C558.413,280.862,558.56,280.611,558.709,280.37Z" transform="translate(-555.989 -276.578)"/></g><g transform="translate(3.786 15.751)"><path class="s" d="M569.566,275.691c-.19.093-.367.2-.548.31.258,6.179.395,9.277.665,15.494l7.533.089c-.1-6.338-.151-9.5-.239-15.8A8.911,8.911,0,0,0,569.566,275.691Z" transform="translate(-563.285 -274.932)"/><path class="t" d="M561.381,282.6c-1.028,2.63-.539,6.4-.877,9.335l6.4.075c-.271-6.217-.407-9.315-.665-15.494A11.852,11.852,0,0,0,561.381,282.6Z" transform="translate(-560.504 -275.451)"/><path class="t" d="M581.143,276.337c-.1-.051-.2-.088-.305-.135.088,6.3.139,9.459.239,15.8l8.337.1C588.179,287.27,586.571,279.176,581.143,276.337Z" transform="translate(-567.146 -275.347)"/><g transform="translate(15.246 2.424)"><path class="q" d="M592.689,295.431c-.073-.638-.175-1.286-.262-1.93-.129-.65-.246-1.3-.4-1.954a25.757,25.757,0,0,0-.981-3.278,10.1,10.1,0,0,1-3.586.967c.3.789.581,1.6.809,2.422.326,1.171.6,2.367.848,3.569.056.3.083.457.139.761l3.485.042C592.722,295.829,592.712,295.631,592.689,295.431Z" transform="translate(-584.555 -281.713)"/><path class="r" d="M589.88,284.478a17.857,17.857,0,0,0-1.274-2.512,12.607,12.607,0,0,0-.87-1.277c-.153-.209-.35-.436-.534-.654a7.732,7.732,0,0,0-.816-.811,2.75,2.75,0,0,0-2.5-.591,1.166,1.166,0,0,0-.738,1.063,3.711,3.711,0,0,0,.275,1.44c.376,1.088.957,2.112,1.415,3.181.165.321.318.654.459.995.168.406.331.819.49,1.235a12.5,12.5,0,0,0,4.433-1.2C590.114,285.06,590,284.767,589.88,284.478Z" transform="translate(-583.146 -278.532)"/></g></g><g transform="translate(10.665 10.937)"><path class="u" d="M571.161,267.782c-.1,1.466-.151,2.2-.251,3.669a6.889,6.889,0,0,0,3.721,1.308,4.822,4.822,0,0,0,2.264-.5c.079-1.015.119-1.522.2-2.537Z" transform="translate(-570.783 -267.782)"/><path class="v" d="M570.848,273.231c-.049.729-.073,1.092-.122,1.821a2.861,2.861,0,0,0,2.11,2.757,6.945,6.945,0,0,0,.93.185c2.811.374,2.841-1.018,2.841-1.018.09-1.174.135-1.761.226-2.934a4.823,4.823,0,0,1-2.264.5A6.888,6.888,0,0,1,570.848,273.231Z" transform="translate(-570.721 -269.562)"/></g><g transform="translate(4.837)"><path class="v" d="M577.474,262.727a2.036,2.036,0,0,0,.16-.852,2.575,2.575,0,0,0-.089-.694c-.005-.02-.016-.037-.022-.057a1.537,1.537,0,0,0-.2-.405.987.987,0,0,0-.33-.325h0a.912.912,0,0,0-.232-.09.851.851,0,0,0-.087-.017.647.647,0,0,0-.108,0,.778.778,0,0,0-.382.126c-.258.2-.3.582-.584.814a.789.789,0,0,1-1.179-.187,2.615,2.615,0,0,1-.406-.742,25.657,25.657,0,0,1-1.1-4.284,5.449,5.449,0,0,1-3.508,1.421,10.508,10.508,0,0,1-1.712-.031,15.189,15.189,0,0,0,.249,5.052c.3,1.507.9,3.39,2.424,4.348a5.085,5.085,0,0,0,.469.261c3.109,1.517,5.3.052,5.936-2.525l.013,0c-.18-.365-.362-.729-.531-1.1A1.371,1.371,0,0,0,577.474,262.727Z" transform="translate(-563.869 -253.001)"/><path class="w" d="M576.91,254.534a3.451,3.451,0,0,0-1.063-.949,1.913,1.913,0,0,0-1.605-.243,3.149,3.149,0,0,0-1.817-1.312,9.457,9.457,0,0,0-5.388-.189,15.671,15.671,0,0,0-4.54,2.091.79.79,0,0,0-.425.483.9.9,0,0,0,.447.795,2.517,2.517,0,0,0,.9.333,19.379,19.379,0,0,0,2.479.4,10.5,10.5,0,0,0,1.712.031,5.449,5.449,0,0,0,3.508-1.421,25.634,25.634,0,0,0,1.1,4.284,2.608,2.608,0,0,0,.406.742.789.789,0,0,0,1.179.186c.284-.23.326-.609.579-.808.02-.012.038-.028.057-.038a.662.662,0,0,1,.331-.094.647.647,0,0,1,.108,0,.824.824,0,0,1,.087.017.932.932,0,0,1,.232.09h0a.989.989,0,0,1,.33.325,1.537,1.537,0,0,1,.2.405c.006.02.016.036.022.057a2.575,2.575,0,0,1,.089.694,2.035,2.035,0,0,1-.159.852,1.371,1.371,0,0,1-1.213.719c.17.367.352.731.531,1.1,1.776.672,2.771-2.885,2.836-4.015A6.546,6.546,0,0,0,576.91,254.534Z" transform="translate(-562.065 -251.54)"/></g><path class="x" d="M568.475,275.832s-.327,7.9-.438,11.02l-2.194-3.809,1.425-.632-2.633-3.47s1.307-3.195,4.1-3.039" transform="translate(-558.068 -259.475)"/><path class="x" d="M580.838,276.2s.2,8.006.166,11.144l2.35-2.743-1.381-1.287,2.773-2.2S583.61,277.349,580.838,276.2Z" transform="translate(-563.361 -259.596)"/><path class="w" d="M573.524,267.792a.26.26,0,0,0-.015-.207,1.537,1.537,0,0,0-.727-.772,3.312,3.312,0,0,1-2.344-.252,1.011,1.011,0,0,0-.387.29c-.072.085-.219.292-.163.434.075.189.562.207.7.225l.951.116,1.517.184C573.233,267.83,573.463,267.9,573.524,267.792Z" transform="translate(-559.78 -256.426)"/></g></g><g transform="translate(32.525 19.114)"><path class="v" d="M434.629,221.863a3.723,3.723,0,0,0,.41-1.8,3.674,3.674,0,0,0-.376-1.543,18.525,18.525,0,0,0-.778-1.706,2.322,2.322,0,0,0-.345-.531.346.346,0,0,0-.606.1.771.771,0,0,0,0,.383,4.823,4.823,0,0,0,.246.88c.025.063.22.7.147.689-1.467-.258-2.873-.952-4.35-1.083a1.789,1.789,0,0,0-.495,0c-.488.1-.818.456-.587.978a2.4,2.4,0,0,0,.964.943,10.854,10.854,0,0,0,2.477,1.125q.233.072.468.125a.338.338,0,0,1,.131.049.316.316,0,0,1,.093.138,4.956,4.956,0,0,1,.295.935S434.23,222.489,434.629,221.863Z" transform="translate(-427.824 -209.688)"/><path class="y" d="M450.172,228.977c-.056-.034-.116-.068-.18-.1a3.6,3.6,0,0,0-1.378-.324,12.714,12.714,0,0,0-6.2,1.607c-1.949.912-3.757,2.028-5.658,3.01q.011-1.564.026-3.12c.007-.876-.009-2.779,0-3.651.007-.555-.033-1.107-.072-1.661-.026-.365-.051-.731-.063-1.1l-3.206-.76c-.08.39-.14.786-.2,1.183a38.172,38.172,0,0,0-.341,4.877,16.089,16.089,0,0,0,.535,6A4.034,4.034,0,0,0,435,237.051c1.233.741,2.973.139,4.062-.179a26.238,26.238,0,0,0,3.848-1.555c.305-.145.6-.3.9-.463-.961,2.564-.569,6.135-.931,8.949l6.39.09c-.151-4.734-.222-7.088-.347-11.766C449.9,231.535,451.88,230.037,450.172,228.977Z" transform="translate(-429.471 -211.888)"/><g transform="translate(19.368 15.742)"><path class="z" d="M457.141,230.681c-.192.092-.37.2-.553.3.149,6.036.24,9.081.436,15.212l7.519.105c-.026-6.259-.03-9.367-.007-15.537A9.063,9.063,0,0,0,457.141,230.681Z" transform="translate(-456.588 -229.934)"/><path class="y" d="M468.686,231.3c-.1-.051-.2-.086-.3-.132-.024,6.169-.019,9.277.007,15.537l8.314.114C475.531,242.04,474.052,234.071,468.686,231.3Z" transform="translate(-460.437 -230.337)"/></g><path class="u" d="M459.547,223.964c-.108,1.2-.162,1.8-.267,3a5.744,5.744,0,0,0,3.092,1.065,4.151,4.151,0,0,0,1.9-.411c.081-.832.122-1.248.2-2.078Z" transform="translate(-438.1 -212.242)"/><g transform="translate(17.289)"><path class="v" d="M465.249,218.5c.246-.457.283-1.714-.392-2.083-.694-.38-1.077.362-1.467.664a.388.388,0,0,1-.193.09.5.5,0,0,1-.444-.321,1.162,1.162,0,0,1-.049-.53,5.433,5.433,0,0,0-.3-3.088c-1.6-2.977-5.719-.593-5.719-.593a11.48,11.48,0,0,0-.151,5.644,5.571,5.571,0,0,0,2.143,3.879,4.546,4.546,0,0,0,.426.232c2.821,1.353,4.847.036,5.477-2.273l.011,0c-.158-.326-.318-.651-.467-.979A1.294,1.294,0,0,0,465.249,218.5Z" transform="translate(-454.402 -208.247)"/><path class="aa" d="M464.688,209.883a6.109,6.109,0,0,0-3.414-1.823c-.213-.046-2.505.009-2.505.009s-.571-1.25-1.179-1.462a1.03,1.03,0,0,0-1.2.467.968.968,0,0,0,.016,1.125,6.731,6.731,0,0,0-2.278-.581.8.8,0,0,0-.458.116.6.6,0,0,0-.108.711,2.345,2.345,0,0,0,.52.7c.135.14,1.715,1.76,1.7,1.8,0,0,4.124-2.384,5.719.593a5.433,5.433,0,0,1,.3,3.088,1.162,1.162,0,0,0,.049.53.5.5,0,0,0,.444.321.388.388,0,0,0,.193-.09c.39-.3.773-1.044,1.467-.664.675.368.638,1.625.392,2.083a1.294,1.294,0,0,1-1.122.646c.149.328.308.653.467.979,1.613.6,2.588-2.589,2.668-3.6A6.739,6.739,0,0,0,464.688,209.883Z" transform="translate(-453.5 -206.554)"/></g><path class="ab" d="M456.3,230.583s-.881,7.889-1.035,10.961c-.856-1.5-1.283-2.249-2.136-3.743l1.434-.619c-1.158-1.353-1.735-2.028-2.889-3.375C451.677,233.807,453.514,230.434,456.3,230.583Z" transform="translate(-435.616 -214.402)"/><path class="ab" d="M467.015,230.618s.655,8.356.92,11.626c1.042-1.427,1.563-2.14,2.607-3.563l-1.5-1.1c.944-1.042,1.416-1.563,2.361-2.6C471.409,234.979,469.822,231.369,467.015,230.618Z" transform="translate(-440.626 -214.415)"/><path class="v" d="M462.306,229.483a5.744,5.744,0,0,1-3.092-1.065.373.373,0,0,1-.007.08l-.018.208q-.034.4-.069.8a3.5,3.5,0,0,0-.021.865,5.712,5.712,0,0,0,.13.606,5.909,5.909,0,0,0,.3.862,4.7,4.7,0,0,0,.54.929,3.6,3.6,0,0,0,.843.811s2.279-.286,2.935-1.88a1.864,1.864,0,0,0,.166-.661c0-.036.009-.07.013-.106l.125-1.3c.013-.135.026-.27.04-.405,0-.02,0-.147.015-.155A4.151,4.151,0,0,1,462.306,229.483Z" transform="translate(-438.033 -213.697)"/></g><g transform="translate(58.432 31.577)"><path class="z" d="M533.633,225.722q-30.192-.336-60.383-.658c-1.985,11.246-3.8,22.521-5.583,33.8q31.082.421,62.164.833C531.024,248.364,532.258,237.034,533.633,225.722Z" transform="translate(-466.747 -225.064)"/><path class="o" d="M467.221,275.262c-.369,2.351-.553,3.529-.921,5.891q31.236.407,62.473.805c.244-2.349.366-3.521.612-5.863Q498.3,275.678,467.221,275.262Z" transform="translate(-466.3 -241.462)"/><g transform="translate(19.868 3.265)"><g transform="translate(0 16.354)"><path class="q" d="M499.963,268.509c.347-1.079.727-2.136,1.151-3.14a17.5,17.5,0,0,1,1.017-2.011,16.661,16.661,0,0,1-3.5-2.766,17.476,17.476,0,0,0-1.265,2.776c-.209.573-.383,1.166-.568,1.751-.142.6-.3,1.2-.427,1.8-.254,1.2-.43,2.436-.57,3.676a1.249,1.249,0,0,0,0,.133l3.507.047.165-.619C499.674,269.495,499.771,269.166,499.963,268.509Z" transform="translate(-495.806 -256.289)"/><path class="e" d="M499.525,257.773a10.436,10.436,0,0,1,1.493-1.864,7.052,7.052,0,0,1,.982-.836c.171-.132.389-.259.591-.383a4.472,4.472,0,0,1,.887-.4,2.839,2.839,0,0,1,2.543.664,1.9,1.9,0,0,1,.642,1.43,2.859,2.859,0,0,1-.4,1.3c-.472.9-1.141,1.625-1.692,2.461a8.055,8.055,0,0,0-.545.762c-.2.321-.4.65-.6.986a20.613,20.613,0,0,1-4.321-3.421C499.24,258.236,499.381,258,499.525,257.773Z" transform="translate(-496.883 -254.201)"/></g><g transform="translate(3.416)"><path class="n" d="M519.511,236.753a19.892,19.892,0,0,1-.205,8.229.3.3,0,0,1-.087.176.32.32,0,0,1-.127.048,17.816,17.816,0,0,1-6.058.522,21.714,21.714,0,0,1-2.153-.306c-.681-.14-1.348-.442-2.019-.586a12.338,12.338,0,0,1-1.853-.508,9.755,9.755,0,0,1-1.845-.861c.187-2.612.523-5.18.636-7.8a7,7,0,0,1,1.058-4.037,4.149,4.149,0,0,1,1.679-1.384,3.169,3.169,0,0,1,3.469.39,9.766,9.766,0,0,1,1.756-.242,6.075,6.075,0,0,1,2.329.551c2.174,1.081,2.911,3.378,3.339,5.388Q519.472,236.544,519.511,236.753Z" transform="translate(-502.278 -229.913)"/><path class="ac" d="M514.055,253.771c-.092-.048-.19-.081-.284-.126a8.354,8.354,0,0,0-6.931-.089c-.178.087-.344.191-.514.289a11.155,11.155,0,0,0-4.581,5.675c-.976,2.455-.539,5.975-.867,8.721l5.985.08,7.045.094,7.794.1C520.57,263.993,519.112,256.421,514.055,253.771Z" transform="translate(-500.879 -237.405)"/><g transform="translate(6.684 10.956)"><path class="ad" d="M511.113,246.184c-.065,1.367-.1,2.052-.162,3.421a5.468,5.468,0,0,0,3.133,1.214,3.669,3.669,0,0,0,1.889-.469c.053-.947.079-1.421.132-2.367Z" transform="translate(-510.853 -246.184)"/><path class="q" d="M510.9,251.265a6.266,6.266,0,0,0,.026,2.264,15.113,15.113,0,0,0,1.633,3.494,20.332,20.332,0,0,0,1.865-.939,2.835,2.835,0,0,0,1.077-1.23,3.9,3.9,0,0,0,.353-1.576q.033-.614.067-1.227l0-.041a3.669,3.669,0,0,1-1.889.469A5.469,5.469,0,0,1,510.9,251.265Z" transform="translate(-510.806 -247.844)"/></g><path class="q" d="M509.031,239.9a9.708,9.708,0,0,0,1.206,4.4,4.154,4.154,0,0,0,4.638,1.584,3.436,3.436,0,0,0,1.484-1.434,3.87,3.87,0,0,0,.438-1.013c.073-.283.26-.61.148-.935a.726.726,0,0,0,1.171.023,2.017,2.017,0,0,0,.336-1.3,1.568,1.568,0,0,0-.067-.512c-.182-.553-.6-.933-1.14-.729-.769.294-.523,1-.873,1.613a.3.3,0,0,1-.366.174.514.514,0,0,1-.236-.423l-.1-.644a1.514,1.514,0,0,0-.084-.352,5.278,5.278,0,0,0-.826-1.069,13.46,13.46,0,0,1-.877-1.33c-.164-.275-1.509-2.571-1.3-2.725a5.964,5.964,0,0,1-2.432,1.27c-.119.022-.725.061-.759.181A10.444,10.444,0,0,0,509.031,239.9Z" transform="translate(-503.539 -231.651)"/></g></g></g><g transform="translate(94.956 51.388)"><path class="q" d="M530.191,271.689c-.071-.65-.172-1.312-.257-1.968-.128-.663-.243-1.326-.4-1.992a26.086,26.086,0,0,0-.982-3.338,10.4,10.4,0,0,1-3.671.982c.3.8.584,1.629.812,2.466.325,1.193.6,2.412.845,3.637.055.31.083.465.137.776l3.563.047C530.222,272.1,530.213,271.893,530.191,271.689Z" transform="translate(-521.961 -257.722)"/><path class="e" d="M527.391,260.533a17.857,17.857,0,0,0-1.283-2.556,12.376,12.376,0,0,0-.879-1.3c-.154-.213-.354-.444-.541-.665a7.716,7.716,0,0,0-.827-.823,2.809,2.809,0,0,0-2.547-.6,1.2,1.2,0,0,0-.764,1.08,3.729,3.729,0,0,0,.271,1.464c.376,1.106.961,2.147,1.423,3.235q.249.49.462,1.012c.169.413.333.834.493,1.257a12.85,12.85,0,0,0,4.539-1.214C527.626,261.126,527.511,260.829,527.391,260.533Z" transform="translate(-520.543 -254.486)"/></g><g transform="translate(20.16 86.92)"><path class="ae" d="M419.962,309.54a5.181,5.181,0,0,1-1.41,7.52,6.017,6.017,0,0,1-8.045-1.3,5.186,5.186,0,0,1,1.413-7.525A6.041,6.041,0,0,1,419.962,309.54Z" transform="translate(-409.461 -307.255)"/><g transform="translate(2.5 3.567)"><path class="f" d="M418.3,313.657c.052-.421.078-.632.129-1.053l-4.7-.051c-.222,1.431-.334,2.149-.557,3.583l4.814.049c.052-.422.078-.634.13-1.055.482.428.726.641,1.219,1.069.156-1.434.234-2.151.389-3.581C419.16,313.034,418.875,313.242,418.3,313.657Z" transform="translate(-413.173 -312.553)"/></g></g><g transform="translate(58.112 87.341)"><path class="o" d="M476.295,310.147a5.124,5.124,0,0,1-1.386,7.468,6.031,6.031,0,0,1-8.032-1.283,5.132,5.132,0,0,1,1.389-7.473A6.051,6.051,0,0,1,476.295,310.147Z" transform="translate(-465.825 -307.88)"/><g transform="translate(3.586 2.304)"><path class="f" d="M473.675,315.248a1.207,1.207,0,0,0,1.333-1.055c-.005-.725-.008-1.087-.013-1.811a1.226,1.226,0,0,0-1.3-1.079,1.209,1.209,0,0,0-1.312,1.053c-.011.724-.017,1.086-.028,1.811A1.224,1.224,0,0,0,473.675,315.248Z" transform="translate(-471.543 -311.302)"/><path class="f" d="M473.478,317.078a1.875,1.875,0,0,0,1.944-1.681c0-.277-.005-.416-.009-.693a.184.184,0,0,0-.2-.159.175.175,0,0,0-.193.155c0,.277,0,.416.008.693a1.579,1.579,0,0,1-1.75,1.384,1.6,1.6,0,0,1-1.737-1.418c.005-.277.008-.415.013-.693a.177.177,0,0,0-.191-.16.183.183,0,0,0-.2.156c-.006.277-.009.416-.016.693a1.9,1.9,0,0,0,1.929,1.718c0,.363,0,.545-.005.908v0l-1.16-.011a.185.185,0,0,0-.2.156.182.182,0,0,0,.2.16l2.726.026a.181.181,0,0,0,.2-.156.187.187,0,0,0-.2-.159l-1.161-.011v0C473.477,317.623,473.477,317.441,473.478,317.078Z" transform="translate(-471.151 -312.349)"/></g></g><g transform="translate(39.147 87.134)"><path class="p" d="M448.144,309.848a5.153,5.153,0,0,1-1.4,7.494,6.022,6.022,0,0,1-8.037-1.29,5.16,5.16,0,0,1,1.4-7.5A6.045,6.045,0,0,1,448.144,309.848Z" transform="translate(-437.66 -307.573)"/><path class="f" d="M446.9,314.591l-.793-.386a.389.389,0,0,0-.586.224l-.138.592a4.4,4.4,0,0,1-1.572-.913,3.78,3.78,0,0,1-.969-1.217l.574-.275a.422.422,0,0,0,.1-.643l-.515-.739a.524.524,0,0,0-.659-.209l-.378.22a.905.905,0,0,0-.448.469.883.883,0,0,0,0,.509,5.011,5.011,0,0,0,1.639,2.726,5.162,5.162,0,0,0,3.093,1.4.753.753,0,0,0,.793-.525c.075-.237.112-.356.186-.593A.569.569,0,0,0,446.9,314.591Z" transform="translate(-438.904 -308.684)"/></g><g transform="translate(16.691 152.858)"><g transform="translate(0 2.435)"><rect class="j" width="110.835" height="3.33" transform="translate(0 1.954)"/><g transform="translate(2.673)"><rect class="af" width="8.677" height="1.954"/><rect class="af" width="8.677" height="1.954" transform="translate(10.764)"/><rect class="af" width="41.478" height="1.954" transform="translate(21.528)"/><rect class="af" width="8.677" height="1.954" transform="translate(64.583)"/><rect class="af" width="8.677" height="1.954" transform="translate(75.347)"/><rect class="af" width="8.677" height="1.954" transform="translate(86.111)"/><rect class="af" width="8.677" height="1.954" transform="translate(96.874)"/><rect class="af" width="7.454" height="1.954" transform="translate(107.638)"/><rect class="af" width="7.454" height="1.954" transform="translate(116.885)"/></g><rect class="h" width="17.589" height="3.33" transform="translate(110.835 1.954)"/></g><path class="g" d="M7.718,0h6.438a7.718,7.718,0,0,1,7.718,7.718v0a0,0,0,0,1,0,0H0a0,0,0,0,1,0,0v0A7.718,7.718,0,0,1,7.718,0Z" transform="translate(143.001)"/></g></g><g transform="translate(0 160.627)"><path class="o" d="M578.635,416.721H281.2a5.153,5.153,0,0,0-5.188,5.117H583.823A5.153,5.153,0,0,0,578.635,416.721Z" transform="translate(-276.011 -416.721)"/><path class="ag" d="M541.571,424.321H276.011a5.154,5.154,0,0,0,5.188,5.118H578.635a5.154,5.154,0,0,0,5.188-5.118Z" transform="translate(-276.011 -419.204)"/></g></g><g transform="translate(181.164 126.096)"><g class="az" transform="matrix(1, 0, 0, 1, -150.46, -41.7)"><path class="f" d="M297.165,146.78a35.118,35.118,0,0,0-29.517,35.142l-13.489,8.934,16.294,4.354a35.115,35.115,0,1,0,26.712-48.43Z" transform="translate(-103.7 -104.63)"/></g><g transform="translate(29.884 19.611)"><path class="p" d="M335.334,185.722a10.263,10.263,0,0,0-18.373-6.3,10.263,10.263,0,0,0-18.373,6.3s-1.6,9.151,14.1,23.241a6.568,6.568,0,0,0,8.691.094C326.99,204.193,335.9,194.958,335.334,185.722Z" transform="translate(-298.541 -175.452)"/><path class="ah" d="M307.142,198.349h7.046l1.225-5.381,2.145,9.074,2.2-12.326L322,202.043l1.991-9.16,1.379,5.466h6.587" transform="translate(-301.351 -180.112)"/></g></g><g transform="translate(37.258 103.731)"><g transform="translate(0 54.573)"><path class="ai" d="M122.121,414.826c-.071-.4-.149-.792-.222-1.188C121.972,414.035,122.049,414.43,122.121,414.826Z" transform="translate(-67.048 -265.856)"/><path class="ai" d="M120.876,408.2c-.088-.455-.183-.908-.273-1.363C120.693,407.294,120.788,407.748,120.876,408.2Z" transform="translate(-66.624 -263.635)"/><path class="ai" d="M125.294,434.609c-.049-.352-.1-.7-.154-1.056C125.19,433.905,125.244,434.257,125.294,434.609Z" transform="translate(-68.106 -272.361)"/><path class="ai" d="M124.324,428c-.056-.367-.118-.733-.175-1.1C124.206,427.269,124.268,427.635,124.324,428Z" transform="translate(-67.783 -270.189)"/><path class="ai" d="M123.278,421.476c-.055-.333-.116-.665-.172-1C123.162,420.811,123.222,421.143,123.278,421.476Z" transform="translate(-67.442 -268.091)"/><path class="ai" d="M119.559,401.671c-.1-.46-.2-.918-.295-1.378C119.361,400.753,119.463,401.211,119.559,401.671Z" transform="translate(-66.187 -261.497)"/><path class="ai" d="M118.16,395.181c-.1-.45-.206-.9-.307-1.347C117.954,394.283,118.06,394.732,118.16,395.181Z" transform="translate(-65.726 -259.387)"/><path class="ai" d="M111.669,369.285c-.141-.509-.29-1.015-.434-1.524C111.378,368.269,111.527,368.776,111.669,369.285Z" transform="translate(-63.564 -250.869)"/><path class="ai" d="M113.423,375.732c-.129-.49-.265-.977-.4-1.467C113.157,374.754,113.294,375.242,113.423,375.732Z" transform="translate(-64.149 -252.994)"/><path class="ai" d="M115.079,382.159c-.124-.5-.256-1-.382-1.5C114.824,381.163,114.956,381.661,115.079,382.159Z" transform="translate(-64.695 -255.084)"/><path class="ai" d="M128.287,461.1c-.028-.332-.062-.663-.091-1C128.225,460.439,128.259,460.771,128.287,461.1Z" transform="translate(-69.105 -281.036)"/><path class="ai" d="M130.036,494.294c-.007-.376-.02-.751-.028-1.126C130.016,493.543,130.03,493.918,130.036,494.294Z" transform="translate(-69.697 -291.835)"/><path class="ai" d="M129.863,487.633c-.012-.376-.03-.753-.043-1.129C129.833,486.88,129.851,487.257,129.863,487.633Z" transform="translate(-69.635 -289.659)"/><path class="ai" d="M129.6,480.963c-.018-.387-.041-.773-.06-1.159C129.559,480.19,129.582,480.577,129.6,480.963Z" transform="translate(-69.544 -287.47)"/><path class="ai" d="M130.121,501.1c0-.277-.007-.553-.009-.83h0C130.114,500.545,130.12,500.821,130.121,501.1Z" transform="translate(-69.731 -294.155)"/><path class="ai" d="M130.11,500.121h0c0-.1,0-.2,0-.3C130.108,499.919,130.11,500.02,130.11,500.121Z" transform="translate(-69.729 -294.008)"/><path class="ai" d="M126.965,447.824c-.039-.35-.084-.7-.125-1.05C126.88,447.125,126.926,447.474,126.965,447.824Z" transform="translate(-68.662 -276.68)"/><path class="ai" d="M126.174,441.217c-.043-.347-.092-.693-.137-1.04C126.081,440.524,126.131,440.871,126.174,441.217Z" transform="translate(-68.399 -274.525)"/><path class="ai" d="M129.248,474.31c-.023-.389-.052-.778-.075-1.168C129.2,473.531,129.226,473.92,129.248,474.31Z" transform="translate(-69.424 -285.294)"/><path class="ai" d="M127.667,454.43c-.036-.362-.077-.724-.114-1.086C127.59,453.706,127.632,454.068,127.667,454.43Z" transform="translate(-68.895 -278.826)"/><path class="ai" d="M109.83,362.869c-.154-.526-.315-1.05-.471-1.575C109.515,361.819,109.677,362.343,109.83,362.869Z" transform="translate(-62.951 -248.757)"/><path class="ai" d="M128.812,467.717c-.025-.35-.056-.7-.082-1.051C128.756,467.017,128.787,467.367,128.812,467.717Z" transform="translate(-69.279 -283.178)"/><path class="ai" d="M116.68,388.729c-.1-.425-.206-.848-.308-1.272C116.474,387.881,116.58,388.3,116.68,388.729Z" transform="translate(-65.242 -257.303)"/><path class="ai" d="M90.744,309.55q-1.707-4.129-3.526-8.208Q89.036,305.42,90.744,309.55Z" transform="translate(-55.719 -229.173)"/><path class="ai" d="M99.3,331.058c-.26-.708-.529-1.413-.793-2.12C98.773,329.644,99.042,330.349,99.3,331.058Z" transform="translate(-59.407 -238.187)"/><path class="ai" d="M105.9,350.14c-.173-.54-.355-1.077-.531-1.616C105.549,349.063,105.731,349.6,105.9,350.14Z" transform="translate(-61.649 -244.585)"/><path class="ai" d="M101.521,337.2c-.275-.785-.562-1.567-.843-2.35C100.959,335.631,101.246,336.413,101.521,337.2Z" transform="translate(-60.116 -240.118)"/><path class="ai" d="M103.714,343.527c-.253-.751-.514-1.5-.772-2.247C103.2,342.029,103.462,342.776,103.714,343.527Z" transform="translate(-60.855 -242.219)"/><path class="ai" d="M94.495,318.564c-.307-.772-.624-1.539-.936-2.309C93.871,317.025,94.188,317.792,94.495,318.564Z" transform="translate(-57.79 -234.044)"/><path class="ai" d="M96.927,324.76c-.292-.763-.593-1.522-.889-2.283C96.335,323.237,96.636,324,96.927,324.76Z" transform="translate(-58.6 -236.077)"/><path class="ai" d="M107.938,356.581c-.144-.47-.3-.938-.442-1.408C107.643,355.643,107.794,356.111,107.938,356.581Z" transform="translate(-62.343 -246.757)"/><path class="af" d="M100.815,404.718c-.009-1.118-.018-2.235-.038-3.352-.007-.376-.02-.751-.028-1.126-.024-1.119-.048-2.239-.083-3.358-.012-.376-.03-.753-.043-1.129-.039-1.118-.079-2.235-.129-3.352-.018-.387-.041-.773-.06-1.159-.054-1.106-.107-2.213-.172-3.318-.023-.389-.052-.778-.075-1.168-.069-1.1-.137-2.207-.216-3.309-.025-.35-.056-.7-.082-1.051-.086-1.141-.171-2.281-.269-3.421-.028-.332-.062-.664-.091-1-.1-1.157-.2-2.313-.318-3.468-.036-.362-.077-.724-.114-1.086-.114-1.124-.23-2.25-.356-3.373-.039-.35-.084-.7-.125-1.05-.131-1.134-.261-2.268-.4-3.4-.043-.347-.092-.694-.137-1.04-.146-1.135-.293-2.271-.45-3.4-.049-.352-.1-.7-.154-1.056-.16-1.127-.321-2.254-.492-3.379-.056-.367-.118-.733-.175-1.1-.173-1.11-.346-2.22-.531-3.328-.055-.333-.116-.665-.172-1-.193-1.14-.386-2.28-.591-3.418-.071-.4-.149-.792-.222-1.188-.2-1.072-.393-2.144-.6-3.215-.088-.454-.183-.908-.273-1.363-.2-1.011-.4-2.021-.607-3.03-.1-.461-.2-.918-.295-1.378-.212-1-.422-2-.643-3-.1-.45-.206-.9-.307-1.347-.227-1.008-.453-2.016-.689-3.022-.1-.425-.206-.848-.308-1.272-.245-1.027-.49-2.054-.745-3.078-.124-.5-.256-1-.382-1.5-.241-.948-.479-1.9-.729-2.842-.129-.49-.265-.978-.4-1.466-.255-.952-.508-1.906-.772-2.856-.141-.508-.29-1.015-.434-1.524-.262-.927-.522-1.855-.792-2.779-.154-.526-.315-1.05-.471-1.575-.269-.9-.535-1.811-.812-2.714-.144-.47-.3-.938-.442-1.408-.3-.954-.593-1.91-.9-2.861-.173-.54-.355-1.077-.531-1.616-.287-.877-.57-1.756-.865-2.631-.253-.751-.514-1.5-.772-2.247-.228-.661-.45-1.322-.681-1.981-.275-.785-.562-1.567-.843-2.35-.223-.62-.441-1.242-.667-1.86-.26-.708-.529-1.413-.793-2.12-.259-.69-.512-1.38-.774-2.068-.292-.764-.593-1.522-.889-2.283-.244-.627-.485-1.256-.733-1.881-.307-.772-.624-1.539-.936-2.309-.248-.611-.492-1.224-.744-1.834q-1.707-4.129-3.526-8.208c-7.425-16.648-16.367-33.2-17.848-51.452a33.209,33.209,0,0,1,.2-8.329,20.522,20.522,0,0,1,.638-2.6,20.4,20.4,0,0,0-8.043,5.806c-6.394,8.242-7.514,17.353-5.608,27.288,3.163,16.492,11.578,31.6,18.383,47.084,11.385,25.914,18.376,53.388,22.252,81.147q1.458,10.437,2.351,20.936c.337,3.906-.562,10.26,1.438,14.066h15.117C100.818,404.92,100.816,404.819,100.815,404.718Z" transform="translate(-40.437 -198.908)"/><path class="m" d="M60.631,214.878c1.481,18.247,10.423,34.8,17.848,51.452Q80.3,270.408,82,274.538c.252.609.5,1.223.744,1.834.312.77.629,1.537.936,2.309.248.625.489,1.254.733,1.881.3.76.6,1.52.889,2.283.263.687.516,1.378.774,2.068.264.706.533,1.411.793,2.12.226.618.444,1.24.667,1.86.281.783.568,1.565.843,2.35.232.659.454,1.32.681,1.981.258.749.52,1.5.772,2.247.294.875.578,1.753.865,2.631.176.539.358,1.076.531,1.616.306.951.6,1.907.9,2.861.147.47.3.938.442,1.408.277.9.543,1.809.812,2.714.156.525.318,1.049.471,1.575.27.925.53,1.852.792,2.78.143.508.292,1.015.434,1.524.264.95.517,1.9.772,2.856.131.49.268.977.4,1.467.249.945.487,1.894.729,2.842.127.5.259,1,.382,1.5.255,1.025.5,2.052.745,3.079.1.424.208.847.308,1.272.236,1.006.463,2.014.689,3.022.1.449.207.9.307,1.347.221,1,.431,2,.643,3,.1.46.2.918.295,1.378.209,1.009.407,2.019.607,3.03.09.455.185.908.273,1.363.207,1.071.4,2.143.6,3.214.073.4.15.792.222,1.188.2,1.138.4,2.278.591,3.418.056.332.116.664.172,1,.185,1.108.358,2.218.531,3.328.057.367.119.733.175,1.1.171,1.125.332,2.252.492,3.379.05.352.1.7.154,1.056.158,1.134.3,2.269.45,3.4.044.347.094.694.137,1.04.143,1.133.273,2.268.4,3.4.04.351.086.7.125,1.05.126,1.124.241,2.249.356,3.373.037.362.079.724.114,1.086.114,1.155.216,2.312.318,3.468.029.332.063.663.091,1,.1,1.139.183,2.28.269,3.421.026.351.057.7.082,1.051.079,1.1.147,2.207.216,3.309.024.389.053.778.075,1.168.065,1.106.118,2.212.172,3.318.019.387.042.773.06,1.16.05,1.117.09,2.234.129,3.352.013.376.031.753.043,1.129.035,1.119.059,2.239.083,3.358.008.375.022.75.028,1.126.02,1.117.03,2.234.038,3.352,0,.1,0,.2,0,.3h49.863c6.613-1.985,13.148-4.243,19.657-6.5,3.311-1.148,6.712-2.346,9.321-4.58,5.161-4.42,5.985-11.678,6.155-18.242.554-21.373-2.22-42.685-4.989-63.906l-5.383-41.255c-2.143-16.417-4.311-32.95-9.7-48.694-3.6-10.513-13.125-17.134-24.217-20.242-9.726-2.725-20.045-2.8-30.192-2.653-12.128.172-24.431.642-36.2,3.656-5.207,1.333-10.606,2.7-15.665,4.367-1.51.5-3.049,1.058-4.542,1.72a20.52,20.52,0,0,0-.638,2.6A33.209,33.209,0,0,0,60.631,214.878Z" transform="translate(-46.98 -194.16)"/><path class="aj" d="M130.123,501.5c.005,1.108,0,2.216-.006,3.324C130.122,503.716,130.128,502.608,130.123,501.5Z" transform="translate(-69.732 -294.557)"/><path class="aj" d="M110.851,366.412c-.262-.927-.522-1.855-.792-2.78C110.329,364.557,110.589,365.485,110.851,366.412Z" transform="translate(-63.18 -249.521)"/><path class="aj" d="M130.088,498.192c-.009-1.118-.018-2.235-.038-3.352C130.07,495.957,130.08,497.074,130.088,498.192Z" transform="translate(-69.71 -292.382)"/><path class="aj" d="M93.2,315.366c-.248-.611-.492-1.224-.744-1.833C92.706,314.141,92.95,314.755,93.2,315.366Z" transform="translate(-57.429 -233.155)"/><path class="aj" d="M127.381,451.707c-.114-1.124-.23-2.25-.356-3.373C127.151,449.458,127.266,450.583,127.381,451.707Z" transform="translate(-68.722 -277.19)"/><path class="aj" d="M129.457,478.194c-.054-1.106-.107-2.213-.172-3.318C129.35,475.982,129.4,477.088,129.457,478.194Z" transform="translate(-69.46 -285.86)"/><path class="aj" d="M129.068,471.536c-.069-1.1-.137-2.206-.216-3.309C128.931,469.33,129,470.434,129.068,471.536Z" transform="translate(-69.319 -283.688)"/><path class="aj" d="M95.682,321.565c-.244-.627-.485-1.256-.733-1.881C95.2,320.309,95.438,320.938,95.682,321.565Z" transform="translate(-58.244 -235.164)"/><path class="aj" d="M129.758,484.878c-.039-1.118-.079-2.235-.129-3.352C129.679,482.643,129.719,483.76,129.758,484.878Z" transform="translate(-69.573 -288.032)"/><path class="aj" d="M129.967,491.539c-.024-1.119-.048-2.239-.083-3.358C129.919,489.3,129.943,490.42,129.967,491.539Z" transform="translate(-69.656 -290.206)"/><path class="aj" d="M128.6,465.007c-.086-1.141-.171-2.281-.269-3.421C128.429,462.725,128.514,463.866,128.6,465.007Z" transform="translate(-69.149 -281.519)"/><path class="aj" d="M128.041,458.425c-.1-1.157-.2-2.313-.318-3.468C127.837,456.112,127.939,457.269,128.041,458.425Z" transform="translate(-68.95 -279.353)"/><path class="aj" d="M104.954,347.248c-.287-.877-.57-1.756-.865-2.631C104.383,345.492,104.667,346.37,104.954,347.248Z" transform="translate(-61.23 -243.309)"/><path class="aj" d="M117.518,392.368c-.227-1.008-.453-2.016-.689-3.022C117.065,390.352,117.292,391.36,117.518,392.368Z" transform="translate(-65.392 -257.921)"/><path class="aj" d="M126.644,445.124c-.131-1.134-.261-2.268-.4-3.4C126.383,442.855,126.513,443.99,126.644,445.124Z" transform="translate(-68.466 -275.03)"/><path class="aj" d="M116.01,385.963c-.245-1.027-.49-2.054-.745-3.078C115.52,383.91,115.765,384.937,116.01,385.963Z" transform="translate(-64.881 -255.81)"/><path class="aj" d="M120.309,405.37c-.2-1.011-.4-2.021-.607-3.03C119.911,403.349,120.109,404.359,120.309,405.37Z" transform="translate(-66.33 -262.165)"/><path class="aj" d="M112.651,372.88c-.255-.952-.508-1.906-.772-2.856C112.143,370.974,112.4,371.928,112.651,372.88Z" transform="translate(-63.775 -251.609)"/><path class="aj" d="M108.965,359.978c-.269-.9-.535-1.811-.812-2.714C108.43,358.166,108.7,359.073,108.965,359.978Z" transform="translate(-62.557 -247.44)"/><path class="aj" d="M107.06,353.785c-.3-.954-.593-1.91-.9-2.861C106.468,351.875,106.763,352.831,107.06,353.785Z" transform="translate(-61.907 -245.369)"/><path class="aj" d="M114.344,379.285c-.241-.948-.479-1.9-.729-2.842C113.864,377.388,114.1,378.337,114.344,379.285Z" transform="translate(-64.342 -253.706)"/><path class="aj" d="M118.952,398.837c-.212-1-.422-2-.643-3C118.53,396.834,118.74,397.835,118.952,398.837Z" transform="translate(-65.875 -260.04)"/><path class="aj" d="M124.9,431.914c-.16-1.127-.321-2.254-.492-3.379C124.58,429.66,124.741,430.787,124.9,431.914Z" transform="translate(-67.868 -270.722)"/><path class="aj" d="M123.892,425.287c-.173-1.11-.346-2.22-.531-3.328C123.545,423.067,123.719,424.177,123.892,425.287Z" transform="translate(-67.525 -268.574)"/><path class="aj" d="M98.133,327.935c-.259-.689-.512-1.38-.774-2.068C97.622,326.554,97.875,327.245,98.133,327.935Z" transform="translate(-59.031 -237.184)"/><path class="aj" d="M125.818,438.525c-.146-1.135-.293-2.27-.45-3.4C125.526,436.255,125.672,437.39,125.818,438.525Z" transform="translate(-68.181 -272.874)"/><path class="aj" d="M122.819,418.821c-.193-1.14-.387-2.28-.591-3.418C122.433,416.541,122.626,417.681,122.819,418.821Z" transform="translate(-67.155 -266.432)"/><path class="aj" d="M121.608,412.078c-.2-1.072-.393-2.144-.6-3.214C121.216,409.935,121.412,411.007,121.608,412.078Z" transform="translate(-66.757 -264.296)"/><path class="aj" d="M100.354,333.946c-.223-.62-.441-1.242-.667-1.86C99.913,332.7,100.131,333.326,100.354,333.946Z" transform="translate(-59.792 -239.216)"/><path class="aj" d="M102.611,340.319c-.228-.661-.45-1.322-.681-1.981C102.162,339,102.384,339.658,102.611,340.319Z" transform="translate(-60.525 -241.258)"/></g><path class="ak" d="M383.479,389.78c8.141-1.31,17.112-.067,25.208,1.3a21.556,21.556,0,0,1,5.947,1.6,17.887,17.887,0,0,1,3.758,2.664c1.737,1.5,13.218,11.044,8.382,12.653-1.821.606-3.355-1.345-4.756-2.151-4.069-2.341-8.965-5.826-13.743-6.634a31.764,31.764,0,0,0-11.749.459c-.729.167-1.588.493-1.677,1.182a1.464,1.464,0,0,0,.243.875c1.765,3.165,5.2,2.273,8.436,3.021a2.628,2.628,0,0,1,1.059.422c.815.649.449,1.943-.343,2.611-1.722,1.452-4.836,1.755-7.087,1.6-4.575-.319-8.9-2.2-12.976-4.027" transform="translate(-152.496 -203.307)"/><path class="s" d="M378.211,384.687s1.464-.217,6.537.61c0,0-.014,15.77-3.637,18.511l-4.618-.957Z" transform="translate(-150.214 -201.817)"/><path class="al" d="M327.069,344.729c-11.285-2.238-22.716-3.618-34.159-4.75-8.851-.88-17.482-2.622-26.313-3.1a2.676,2.676,0,0,1-3.21-2.507c-2.5-11.1-4.681-22.286-7.949-33.193-2.683-8.953-6.174-21.589-13.316-28.2-5.363-4.962-12.222-5.442-15.8,1.961-1.659,3.435-1.468,7.445-1.116,11.244a174.28,174.28,0,0,0,17.7,61.8c2.621,5.23,4.7,11.506,9.2,15.423,4.189,3.647,8.507,2.794,13.52,3.066,5.332.289,10.641-.118,15.972.048,8.326.26,16.655.584,24.988.5l11.328-.112,5.85-.059c1.793-.017,3.093.421,4.1-1.032,3.337-4.833,3.649-13.228,3.027-18.814a2.3,2.3,0,0,0-.379-1.205,2.371,2.371,0,0,0-1.427-.669Q328.08,344.929,327.069,344.729Z" transform="translate(-100.717 -164.136)"/><path class="am" d="M187.917,447.283s85.846,12.549,110.937,35.653H127.3l-2.968-13.788Z" transform="translate(-67.842 -222.273)"/><path class="s" d="M208.495,265.053a17.845,17.845,0,0,1-2.682,3.957c-3.43,3.73-8.57,4-13.35,3.809a20.482,20.482,0,0,1-6.768-1.242,16.527,16.527,0,0,1-6.677-5.13l-.614,10.06,5.322,44.194.337,88.7a84.309,84.309,0,0,0,16.122-2.46c1.788-.471,5.092-6.694,5.092-6.694s3.4,3.844,5.007,3.123a80.986,80.986,0,0,0,7.749-4.019S216.561,296.613,208.495,265.053Z" transform="translate(-85.506 -162.745)"/><g transform="translate(102.567 111.685)"><path class="ac" d="M210.542,281.681l-3.641-2.676-4.56-.027-3.124,3,3,6,5.876-.346Z" transform="translate(-194.872 -278.979)"/><path class="e" d="M205.987,291.84l-5.876.346-7.347,64.462,12.89,11,11.815-11.257Z" transform="translate(-192.764 -283.18)"/></g><path class="an" d="M176.132,249.483s.191-2.114,17.118-2.853c0,0,12.546-.4,15.116,2.934l-2.827,13.794-8.847,3.345-19.741-12.152Z" transform="translate(-84.764 -156.722)"/><g transform="translate(91.289 79.692)"><path class="ao" d="M205.4,242.213c-.49-3.909-.871-8.257-.562-10.748l-28.824.37A67.984,67.984,0,0,1,178,240.3a21.846,21.846,0,0,0,12.558,4.91A31.467,31.467,0,0,0,205.4,242.213Z" transform="translate(-176.014 -231.465)"/><path class="ak" d="M207.608,254.757s-.693-3.851-1.246-8.261a31.466,31.466,0,0,1-14.847,2.993,21.846,21.846,0,0,1-12.558-4.91,39.074,39.074,0,0,1,.493,11.066l-.251,4.113a16.527,16.527,0,0,0,6.677,5.129,20.48,20.48,0,0,0,6.768,1.242c4.781.19,9.92-.079,13.35-3.809a17.845,17.845,0,0,0,2.682-3.956C208.335,257.034,207.98,255.826,207.608,254.757Z" transform="translate(-176.975 -235.749)"/></g><g transform="translate(71.128)"><path class="ak" d="M209.38,163.857l-.139-.254c-12.217-13.414-30.01-14.4-37.39-14.166a2.624,2.624,0,0,0-2.437,3.322c3.308,12.242-.618,21.152-3.184,25.3a1.716,1.716,0,0,1-3-.187c-4.208-8.79-8.912-2-8.912-2a19.308,19.308,0,0,0-.105,14.488c.674,1.677,1.948,3.734,3.7,4.171,0,0,3.675.428,6.045-1.12,0,0,.127,5.657,2.413,9.707a29.786,29.786,0,0,0,6.935,7.438c.842.637,1.717,1.23,2.592,1.821a18.657,18.657,0,0,0,22.829-1.7c5.727-5.216,7.579-12.873,8.607-20.238.618-4.434,1.115-8.885,1.444-13.35q.246-3.346.366-6.7C209.175,169.466,209.8,165.059,209.38,163.857Z" transform="translate(-148.286 -124.968)"/><path class="w" d="M208.873,137.564a26.335,26.335,0,0,1,3.244.032c.707.05,1.863.161,2.571.154a15,15,0,0,0,2.035.1c3.7-.541-.675-5.615-1.543-6.845a53.364,53.364,0,0,0-4.324-5.371,42.405,42.405,0,0,0-10.734-8.551q-.363-.2-.729-.389a31.762,31.762,0,0,0-24.625-1.985,40.8,40.8,0,0,0-12.133,6.613l-1.048-4.612a2.923,2.923,0,0,0-1.081-2.007.777.777,0,0,0-.5-.123c-.33.053-.527.392-.646.7-.852,2.238-.15,4.734.555,7.023-.571-1.351-1.38-2.893-2.833-3.094a.707.707,0,0,0-.576.117c-.234.213-.155.595-.048.894a13.948,13.948,0,0,0,2.059,3.579c-4.639.56-8.5,4.171-10.429,8.429s-2.185,9.081-1.939,13.748c.35,6.648,1.744,12.876,5.95,18.036,0,0,4.7-6.791,8.912,2a1.716,1.716,0,0,0,3,.187c2.566-4.148,6.492-13.059,3.184-25.3a2.624,2.624,0,0,1,2.437-3.322c7.38-.234,25.173.753,37.39,14.166l2.361,2.114a1.51,1.51,0,0,0,2.3-.228,3.23,3.23,0,0,0,.38-1.335C212.655,147.569,212.453,141.125,208.873,137.564Z" transform="translate(-146.072 -113.111)"/><g transform="translate(9.625 68.445)"><path class="w" d="M160.366,215.881l.582,3.031c.407,2.114,1.219,5.288,3.412,6.2a4.062,4.062,0,0,0,4.381-.766l.082.126c-2.287-4.05-2.413-9.707-2.413-9.707C164.041,216.309,160.366,215.881,160.366,215.881Z" transform="translate(-160.366 -214.761)"/></g><path class="ap" d="M210.067,188.983q2.07,7.117,3.843,14.317a1.731,1.731,0,0,1-.005,1.228,1.579,1.579,0,0,1-.636.56,9.154,9.154,0,0,1-6.232,1.051" transform="translate(-165.987 -137.896)"/><path class="aq" d="M227.843,186.51a2.234,2.234,0,1,1-2.085-2.374A2.234,2.234,0,0,1,227.843,186.51Z" transform="translate(-171.326 -136.311)"/><path class="aq" d="M202.306,184.854a2.234,2.234,0,1,1-2.085-2.374A2.234,2.234,0,0,1,202.306,184.854Z" transform="translate(-162.984 -135.77)"/><path class="ar" d="M224.58,170.159a4.211,4.211,0,0,1,2.237.485,9.091,9.091,0,0,1,1.9,1.246,8.071,8.071,0,0,1,2.458,3.58.325.325,0,0,1-.555.314l0,0a9.6,9.6,0,0,0-2.971-2.314,8.745,8.745,0,0,0-1.675-.631,10.3,10.3,0,0,1-1.67-.518l-.07-.031a1.115,1.115,0,0,1,.352-2.127Z" transform="translate(-171.387 -131.742)"/><path class="ar" d="M199.942,170.12a10.261,10.261,0,0,1-1.723.3,8.74,8.74,0,0,0-1.742.409,9.6,9.6,0,0,0-3.245,1.911l0,0a.325.325,0,0,1-.51-.382,8.069,8.069,0,0,1,2.9-3.233,9.076,9.076,0,0,1,2.042-.99,4.214,4.214,0,0,1,2.281-.193,1.115,1.115,0,0,1,.076,2.155Z" transform="translate(-161.299 -130.996)"/><path class="f" d="M206.988,222.35a1.243,1.243,0,0,0-.952-1.9c-7.931-.665-12.268-2.334-14.38-3.466a1.237,1.237,0,0,0-1.79.834A23.365,23.365,0,0,0,206.988,222.35Z" transform="translate(-160.378 -146.994)"/><g transform="translate(29.458 70.823)"><path class="as" d="M189.851,218.294a1.244,1.244,0,0,0-.03.294,8.689,8.689,0,0,0,1.326,4.48,11.175,11.175,0,0,1,4.776.433,12.93,12.93,0,0,1,5.218,3.248,8.861,8.861,0,0,0,5.813-3.885c.008-.012.011-.025.019-.037A23.365,23.365,0,0,1,189.851,218.294Z" transform="translate(-189.821 -218.294)"/><path class="at" d="M191.791,225.341c1.065,1.621,2.927,3.031,6.148,3.627a10.656,10.656,0,0,0,3.846.054,12.931,12.931,0,0,0-5.218-3.247A11.174,11.174,0,0,0,191.791,225.341Z" transform="translate(-190.465 -220.567)"/></g><path class="au" d="M162.313,203.613a3.493,3.493,0,0,1-1.793-.848,5.344,5.344,0,0,1-1.221-1.625,9.71,9.71,0,0,1-1-4.041c-.006-.23,0-.461.009-.694a7.474,7.474,0,0,0,3.849,2.848.3.3,0,0,0,.217-.557,6.31,6.31,0,0,1-2.536-2.23,7.157,7.157,0,0,1-.766-1.552,6.544,6.544,0,0,1-.251-.865,1.532,1.532,0,0,1,.295-.953,3.5,3.5,0,0,1,3.061-2,.3.3,0,0,0,.063-.595,3.349,3.349,0,0,0-2.448.22,4.049,4.049,0,0,0-1.749,1.8,8.071,8.071,0,0,0-.732,2.277,10.5,10.5,0,0,0-.151,2.338,9.928,9.928,0,0,0,1.3,4.455,4.73,4.73,0,0,0,3.81,2.609.3.3,0,0,0,.041-.6Z" transform="translate(-149.69 -138.349)"/></g><path class="t" d="M169.234,408.676c-.24,9.965-35.2,7.441-46.342,6.383a3.449,3.449,0,0,1-3.113-3.7l10.1-131.649c8.029-11.231,30.235-18.692,30.235-18.692S171.657,307.788,169.234,408.676Z" transform="translate(-66.352 -161.426)"/><path class="t" d="M221.508,259.7c.9,6.113,9.257,112.286,6.516,141.871a2.488,2.488,0,0,0,2.9,2.682c4.635-.8,13.166-2.846,18.987-7.663a5.962,5.962,0,0,0,2.108-4.676C251.819,373.925,248.53,275.188,221.508,259.7Z" transform="translate(-99.586 -160.995)"/><path class="ak" d="M245.647,428.658c.122-.306,2.678-.98,3.135-1.2a29.609,29.609,0,0,1,3.811-1.318,37.736,37.736,0,0,1,8-1.712,4.4,4.4,0,0,1,2.955.5c3.481,2.481-4.318,5.355-5.691,6.162a4.5,4.5,0,0,0-1.575,1.3,1.6,1.6,0,0,0,.022,1.91,2.294,2.294,0,0,0,1.184.55c3.41,1.218,6.635,1.125,10.159,1.341,3.781.232,7.319-.962,11.072-1.321a2.954,2.954,0,0,1,2.287.459c1,.9.45,2.617-.5,3.277-1.338.933-3.1,1.147-4.629,1.6a111.221,111.221,0,0,1-13.624,2.736,23.838,23.838,0,0,1,4.327.227c3.942.156,7.891-.279,11.855-.431a3.342,3.342,0,0,1,1.615.205c2.39,1.178.206,3.155-1.212,3.866a16.224,16.224,0,0,1-4.228,1.318,40.6,40.6,0,0,1-12.577.44,25.759,25.759,0,0,0,7.638,1.7c1.3.122,2.6.2,3.894.281,1.044.066,2.652-.041,3.115,1.173a1.257,1.257,0,0,1,.087.514c-.057,1.082-1.662,1.812-2.546,2.186a13.441,13.441,0,0,1-4.661.846,30.312,30.312,0,0,1-13.039-2.472,18.824,18.824,0,0,0,7.087,4.054,28.58,28.58,0,0,0,6,1.415c.733.091,2.038.516,1.535,1.513-.381.756-1.887,1.024-2.623,1.144-5.471.895-10.762-1.279-15.249-4.187-5.373-3.483-10.676-7.581-13.494-13.329Z" transform="translate(-105.557 -214.794)"/><path class="s" d="M237.248,424.9s1.479.081,6.284,1.906c0,0-3.17,15.448-7.269,17.408l-4.333-1.86Z" transform="translate(-102.991 -214.962)"/><path class="av" d="M193.652,373.571C172.974,364.7,151.237,357.1,129.1,353.347a244.082,244.082,0,0,0,9.073-42q1.312-10.463,1.718-21.013c.177-4.6,1.857-12.344-3.958-14.306-7.648-2.581-14.475,8.2-17.313,13.75-6.771,13.247-9.457,27.93-12.171,42.386-1.028,5.475-1.839,10.995-2.935,16.453a63.3,63.3,0,0,0-1.439,16.238,9.033,9.033,0,0,0,.576,3.074c1.372,3.157,4.874,5.808,7.768,7.461,3.539,2.021,7.341,3.071,11.1,4.52a93.219,93.219,0,0,0,13.4,3.66c11.408,2.536,22.782,5.549,34.2,7.764l11.121,2.157,5.744,1.114c1.76.341,2.946,1.031,4.219-.191,4.237-4.068,6.222-12.23,6.731-17.828a2.3,2.3,0,0,0-.13-1.257,2.371,2.371,0,0,0-1.265-.941Q194.6,373.977,193.652,373.571Z" transform="translate(-60.545 -166.203)"/><path class="av" d="M173.371,261.015s5.623,1.442,8.825,84.914l-17.277-46.24,7.512-6.356L160.348,286.1S161.65,271.17,173.371,261.015Z" transform="translate(-79.608 -161.426)"/><path class="av" d="M221.723,259.71s2.868,30.21,5.541,85.19l9.277-48.482-8.472-5.006,8.763-9.723S232.875,262.175,221.723,259.71Z" transform="translate(-99.657 -161)"/><g transform="translate(71.482 99.937)"><g transform="translate(22.16 72.047)"><path class="aw" d="M188.364,368.531,186,368.9c.145,1,.619,4.754.7,5.416a1.8,1.8,0,0,1-.918,1.893l-.77.246a1.194,1.194,0,0,0,.729,2.274l.77-.246a4.1,4.1,0,0,0,2.561-4.453C188.982,373.273,188.5,369.5,188.364,368.531Z" transform="translate(-181.036 -368.531)"/><path class="ax" d="M183.738,382.657l-2,.451a1.6,1.6,0,0,1-2.042-1.05l-.17-.929a1.764,1.764,0,0,1,1.51-1.852l2-.451a1.6,1.6,0,0,1,2.042,1.05l.17.928A1.764,1.764,0,0,1,183.738,382.657Z" transform="translate(-179.508 -371.877)"/></g><g transform="translate(0.8 75.792)"><path class="aw" d="M147.785,374.318l2.379-.225c.108,1.007.58,4.759.667,5.42a1.8,1.8,0,0,0,1.36,1.606l.807.048a1.194,1.194,0,1,1-.141,2.383l-.807-.048a4.1,4.1,0,0,1-3.586-3.678C148.363,379.064,147.891,375.288,147.785,374.318Z" transform="translate(-147.785 -374.093)"/><path class="ax" d="M155.251,386.88l2.048-.059a1.6,1.6,0,0,0,1.717-1.524l-.066-.941a1.765,1.765,0,0,0-1.922-1.419L154.98,383a1.6,1.6,0,0,0-1.717,1.525l.065.941A1.765,1.765,0,0,0,155.251,386.88Z" transform="translate(-149.573 -376.982)"/></g><g transform="translate(0 42.923)"><path class="af" d="M164.639,326.882a8.263,8.263,0,0,0-6.867-1.364c-11.583,2.733-11.927,19.735-10.688,32.876a1.472,1.472,0,0,0,1.7,1.314h0a1.474,1.474,0,0,0,1.236-1.6c-1.457-15.559.277-27.8,8.431-29.723a5.348,5.348,0,0,1,4.5.912c6.117,4.27,9.023,16.286,10.379,25.044a1.471,1.471,0,0,0,1.685,1.23h0a1.47,1.47,0,0,0,1.229-1.675C174.738,344.08,171.583,331.731,164.639,326.882Z" transform="translate(-146.598 -325.278)"/></g><path class="af" d="M169.8,262.092a18.773,18.773,0,0,0-3.887,4.255,11.9,11.9,0,0,0-.779,1.214,12.845,12.845,0,0,0-.74,1.236,27.359,27.359,0,0,0-1.256,2.606,22.5,22.5,0,0,0-1,2.729l-.413,1.4-.207.7-.143.719-.578,2.873-.329,2.926c-.044.489-.136.972-.14,1.465l-.051,1.477-.11,2.954.108,2.964.054,1.483.026.741.078.74c.1.986.216,1.972.3,2.96l.139,1.482.07.742.116.737c.314,1.964.626,3.93.911,5.9l.007.052a.9.9,0,0,1-1.775.308c-.4-1.982-.778-3.973-1.153-5.964-.343-2-.537-4.023-.778-6.039l-.085-.757-.035-.763-.069-1.526-.137-3.053.086-3.064a24.314,24.314,0,0,1,.211-3.062l.37-3.056.639-3.025.168-.753.233-.741.467-1.481a24.6,24.6,0,0,1,1.127-2.9,21.222,21.222,0,0,1,3.275-5.313,12.332,12.332,0,0,1,5.027-3.713.3.3,0,0,1,.287.512Z" transform="translate(-150.306 -261.531)"/><g transform="translate(53.749 0.37)"><path class="af" d="M226.78,262.087a12.616,12.616,0,0,1,5.553,2.932,11.88,11.88,0,0,1,1.153,1.077c.36.382.749.745,1.073,1.157l.962,1.246.475.628.413.666a36.371,36.371,0,0,1,4.737,11.462c.125.5.279,1,.379,1.5l.262,1.52.508,3.044.272,3.063.135,1.531a14.066,14.066,0,0,1,.086,1.532c.022,2.043.093,4.09.013,6.127-.118,2.035-.238,4.069-.386,6.1a.9.9,0,0,1-1.8-.077v-.057c.032-2,.092-4,.154-6a14.438,14.438,0,0,0-.008-1.5l-.054-1.5c-.041-1-.054-1.994-.082-2.99a13.225,13.225,0,0,0-.1-1.489l-.143-1.485-.288-2.967-.516-2.926-.25-1.464c-.093-.485-.237-.957-.353-1.436-.251-.953-.477-1.915-.745-2.862l-.982-2.777a32.737,32.737,0,0,0-2.582-5.247l-.371-.629-.429-.586-.846-1.184c-.278-.4-.626-.734-.931-1.111a10.542,10.542,0,0,0-.964-1.083,19.435,19.435,0,0,0-4.517-3.647l-.04-.024a.3.3,0,0,1,.209-.548Z" transform="translate(-226.422 -262.081)"/><g transform="translate(7.872 35.008)"><path class="h" d="M252.02,321.518a6.962,6.962,0,1,1-6.462-7.428A6.961,6.961,0,0,1,252.02,321.518Z" transform="translate(-238.113 -314.073)"/><path class="j" d="M251.217,322.17a5.395,5.395,0,1,1-5.007-5.756A5.394,5.394,0,0,1,251.217,322.17Z" transform="translate(-238.873 -314.833)"/><path d="M249.916,323.225a2.857,2.857,0,1,1-2.652-3.048A2.856,2.856,0,0,1,249.916,323.225Z" transform="translate(-240.104 -316.065)"/></g></g></g><path class="ay" d="M175.425,250.874l-1.458,8.545,12.312,17.15,9.706-8.475Z" transform="translate(-84.057 -158.113)"/><path class="ay" d="M206.667,268.133l8.88,5.882L221.5,258.97l-3.154-7.977Z" transform="translate(-94.739 -158.152)"/></g></g></svg>